<svg xmlns="http://www.w3.org/2000/svg" width="68.483" height="66" viewBox="0 0 68.483 66"><defs><style>.a{fill:#46c8e0;}.b{fill:#ff6673;}</style></defs><g transform="translate(0.004 -8.435)"><g transform="translate(16.557 16.685)"><g transform="translate(0 0)"><path class="a" d="M137.666,96.33a16.2,16.2,0,0,0,10.1-15.247c0-9.179-7.931-16.647-17.679-16.647S112.409,71.9,112.409,81.082a16.2,16.2,0,0,0,10.1,15.247l.137.074.936,1.536a3.5,3.5,0,0,0-.825,5.388,3.52,3.52,0,0,0,2.616,5.893H134.8a3.52,3.52,0,0,0,2.616-5.893,3.5,3.5,0,0,0-.825-5.388l.936-1.536ZM134.8,106.864h-9.429a1.179,1.179,0,0,1,0-2.357H134.8a1.179,1.179,0,1,1,0,2.357Zm0-4.714h-9.429a1.179,1.179,0,0,1,0-2.357H134.8a1.179,1.179,0,1,1,0,2.357Zm1.794-7.921-.471.256a1.184,1.184,0,0,0-.444.422l-1.541,2.529h-.517V88.494l5.548-5.548L137.5,81.28l-5.893,5.893a1.179,1.179,0,0,0-.345.833v9.429h-2.357V88.006a1.179,1.179,0,0,0-.345-.833L122.67,81.28,121,82.947l5.548,5.548v8.941h-.517l-1.541-2.529a1.184,1.184,0,0,0-.444-.422l-.471-.256a1.265,1.265,0,0,0-.116-.055,13.878,13.878,0,0,1-8.7-13.091c0-7.879,6.873-14.29,15.322-14.29s15.322,6.411,15.322,14.29a13.878,13.878,0,0,1-8.7,13.091C136.672,94.19,136.633,94.208,136.6,94.228Z" transform="translate(-112.407 -64.435)"/></g></g><g transform="translate(8.959 16.81)"><g transform="translate(0 0)"><rect class="b" width="2.357" height="7.906" transform="translate(0 2.108) rotate(-63.435)"/></g></g><g transform="translate(51.108 17.263)"><g transform="translate(0 0)"><rect class="b" width="7.906" height="2.357" transform="translate(0 2.501) rotate(-18.446)"/></g></g><g transform="translate(4.773 32.007)"><rect class="b" width="7.071" height="2.357"/></g><g transform="translate(56.63 32.007)"><rect class="b" width="7.071" height="2.357"/></g><g transform="translate(8.96 46.273)"><g transform="translate(0 0)"><rect class="b" width="7.906" height="2.357" transform="translate(0 3.536) rotate(-26.565)"/></g></g><g transform="translate(51.388 46.277)"><g transform="translate(0 0)"><rect class="b" width="2.357" height="7.906" transform="translate(0 2.108) rotate(-63.435)"/></g></g><g transform="translate(33.058 8.435)"><rect class="b" width="2.357" height="5.893"/></g><g transform="translate(0.058 61.471)"><path class="a" d="M68.776,370.792v-2.357c-15.376,0-31.716,3.717-31.821,10.607H32.239c-.105-6.89-16.445-10.607-31.821-10.607v2.357c17.266,0,29.323,4.333,29.458,8.25H.418V381.4H68.776v-2.357H39.317C39.453,375.126,51.509,370.792,68.776,370.792Z" transform="translate(-0.418 -368.435)"/></g><g transform="translate(-0.004 67.367)"><g transform="translate(0 0)"><rect class="a" width="2.357" height="22.428" transform="translate(0 2.354) rotate(-86.985)"/></g></g><g transform="translate(45.958 67.365)"><g transform="translate(0 0)"><rect class="a" width="22.428" height="2.357" transform="translate(0 1.182) rotate(-3.021)"/></g></g></g></svg>