<svg xmlns="http://www.w3.org/2000/svg" width="66.122" height="66.061" viewBox="0 0 66.122 66.061"><defs><style>.a{fill:#46c8e0;}.b{fill:#ff6673;}</style></defs><g transform="translate(0 -0.234)"><path class="a" d="M65.776,58.323c-.7-2.028-2.435-4.042-5.167-5.985a23.679,23.679,0,0,0-6.086-3.159,4.688,4.688,0,0,0-5.42-6.719A18.913,18.913,0,0,0,45.91,28.23V18.651a.969.969,0,0,0-1.937,0v7.262a19.092,19.092,0,0,0-2.559-2.183A18.961,18.961,0,0,0,11.591,41.388a19.08,19.08,0,0,0,.55,2.819H5.225a3.292,3.292,0,0,1-3.288-3.288V5.459A3.292,3.292,0,0,1,5.225,2.171H40.684a3.292,3.292,0,0,1,3.288,3.288v9.318a.969.969,0,0,0,1.937,0V5.459A5.231,5.231,0,0,0,40.684.234H5.225A5.231,5.231,0,0,0,0,5.459V40.918a5.231,5.231,0,0,0,5.225,5.225h7.56a18.88,18.88,0,0,0,5.051,7.22.969.969,0,0,0,1.284-1.45,17.025,17.025,0,1,1,27.627-7.9c-.063.078-.125.157-.184.24l-6.057,8.514c-.059.083-.114.168-.167.254A17.038,17.038,0,0,1,22.1,54.035a.969.969,0,0,0-.949,1.689,18.978,18.978,0,0,0,18.493.024,4.688,4.688,0,0,0,4.67,4.428,4.742,4.742,0,0,0,.79-.067,4.655,4.655,0,0,0,2.663-1.441,23.665,23.665,0,0,0,4.981,4.713c3.058,2.175,5.46,2.913,7.312,2.913a5.886,5.886,0,0,0,4.913-2.534,5.8,5.8,0,0,0,.8-5.439ZM44.787,58.2a2.753,2.753,0,0,1-2.7-4.311l6.057-8.514a2.735,2.735,0,0,1,1.786-1.119,2.791,2.791,0,0,1,.464-.039,2.754,2.754,0,0,1,2.238,4.35l-6.057,8.514A2.735,2.735,0,0,1,44.787,58.2ZM63.4,62.639a3.865,3.865,0,0,1-3.314,1.715c-2.185,0-4.615-1.416-6.21-2.55a21.149,21.149,0,0,1-4.9-4.762l4.4-6.191a21.157,21.157,0,0,1,6.1,3.065C62,55.7,65.84,59.208,63.4,62.639Z" transform="translate(0 0)"/><path class="b" d="M143.084,223.075a13.9,13.9,0,0,0,2.311-.194,13.656,13.656,0,1,0-2.31.194Zm-9.569-20.546a11.778,11.778,0,1,1,2.771,16.425A11.772,11.772,0,0,1,133.516,202.529Z" transform="translate(-112.691 -170.175)"/><path class="b" d="M215.138,239.844a3.033,3.033,0,0,0,3.03-3.03V230.5a3.03,3.03,0,0,0-6.06,0v6.313A3.033,3.033,0,0,0,215.138,239.844Zm-1.093-9.343a1.093,1.093,0,1,1,2.186,0v6.313a1.093,1.093,0,0,1-2.186,0Z" transform="translate(-184.715 -197.891)"/><path class="b" d="M215.138,335.289a3.03,3.03,0,1,0-3.03-3.03A3.033,3.033,0,0,0,215.138,335.289Zm0-4.123a1.093,1.093,0,1,1-1.093,1.093A1.094,1.094,0,0,1,215.138,331.166Z" transform="translate(-184.715 -286.507)"/><path class="b" d="M45.634,33.056a.968.968,0,0,0-1.37,0l-6.957,6.957a.969.969,0,1,0,1.37,1.37l6.957-6.957A.968.968,0,0,0,45.634,33.056Z" transform="translate(-32.242 -28.336)"/><path class="b" d="M57.2,45.436a.965.965,0,0,0,.685-.284L68.607,34.427a.969.969,0,0,0-1.37-1.37L56.512,43.783a.969.969,0,0,0,.685,1.653Z" transform="translate(-48.967 -28.337)"/><path class="b" d="M265.736,80.942,258.779,87.9a.969.969,0,1,0,1.37,1.37l6.957-6.957a.969.969,0,0,0-1.37-1.37Z" transform="translate(-225.112 -70.038)"/></g></svg>