<svg xmlns="http://www.w3.org/2000/svg" width="60" height="60" viewBox="0 0 60 60"><defs><style>.a{fill:#ff6673;}.b{fill:#46c8e0;}</style></defs><g transform="translate(41.757 6.328)"><path class="a" d="M358.33,54.343a1.171,1.171,0,1,0,.344.829A1.18,1.18,0,0,0,358.33,54.343Z" transform="translate(-356.33 -54)"/></g><g transform="translate(32.153 11.953)"><path class="a" d="M283.041,102h-7.5a1.172,1.172,0,0,0-1.172,1.172v7.5a1.172,1.172,0,0,0,1.172,1.172h7.5a1.172,1.172,0,0,0,1.172-1.172v-7.5A1.172,1.172,0,0,0,283.041,102Zm-1.172,7.5h-5.156v-5.156h5.156Z" transform="translate(-274.369 -102)"/></g><g transform="translate(32.153 25.078)"><path class="a" d="M283.041,214h-7.5a1.172,1.172,0,0,0-1.172,1.172v7.5a1.172,1.172,0,0,0,1.172,1.172h7.5a1.172,1.172,0,0,0,1.172-1.172v-7.5A1.172,1.172,0,0,0,283.041,214Zm-1.172,7.5h-5.156v-5.156h5.156Z" transform="translate(-274.369 -214)"/></g><g transform="translate(32.153 38.203)"><path class="a" d="M279.291,326h-3.75a1.172,1.172,0,0,0-1.172,1.172v7.5a1.172,1.172,0,0,0,2.344,0v-6.328h2.578a1.172,1.172,0,0,0,0-2.344Z" transform="translate(-274.369 -326)"/></g><g transform="translate(19.023 11.953)"><path class="a" d="M171,102a1.172,1.172,0,0,0-1.172,1.172V109.5H163.5a1.172,1.172,0,0,0,0,2.344H171a1.172,1.172,0,0,0,1.172-1.172v-7.5A1.172,1.172,0,0,0,171,102Z" transform="translate(-162.333 -102)"/></g><g transform="translate(19.023 25.078)"><path class="a" d="M171,214h-7.5a1.172,1.172,0,0,0-1.172,1.172v7.5a1.172,1.172,0,0,0,1.172,1.172H171a1.172,1.172,0,0,0,1.172-1.172v-7.5A1.172,1.172,0,0,0,171,214Zm-1.172,7.5h-5.156v-5.156h5.156Z" transform="translate(-162.333 -214)"/></g><g transform="translate(19.023 38.203)"><path class="a" d="M171,326h-7.5a1.172,1.172,0,0,0-1.172,1.172v7.5a1.172,1.172,0,0,0,1.172,1.172H171a1.172,1.172,0,0,0,1.172-1.172v-7.5A1.172,1.172,0,0,0,171,326Zm-1.172,7.5h-5.156v-5.156h5.156Z" transform="translate(-162.333 -326)"/></g><g transform="translate(28.796 54.641)"><path class="a" d="M247.729,466.613a1.171,1.171,0,1,0,.343.829A1.176,1.176,0,0,0,247.729,466.613Z" transform="translate(-245.729 -466.27)"/></g><path class="b" d="M45.937,0H14.063a3.52,3.52,0,0,0-3.516,3.516v.467H3.516A3.52,3.52,0,0,0,0,7.5V18.28A3.52,3.52,0,0,0,3.516,21.8H14.3a3.52,3.52,0,0,0,3.516-3.516V8.672H37.5a1.172,1.172,0,0,0,0-2.344H17.611A3.521,3.521,0,0,0,14.3,3.983H12.891V3.516a1.173,1.173,0,0,1,1.172-1.172H45.937a1.173,1.173,0,0,1,1.172,1.172V30a1.172,1.172,0,0,0,2.344,0V3.516A3.52,3.52,0,0,0,45.937,0ZM15.469,18.28A1.173,1.173,0,0,1,14.3,19.452H3.516A1.173,1.173,0,0,1,2.344,18.28v-.426a1.176,1.176,0,0,0,.184-.15L6.24,13.991l2.6,2.6a1.172,1.172,0,0,0,1.657,0l4.972-4.972ZM14.3,6.327A1.173,1.173,0,0,1,15.469,7.5V8.3l-5.8,5.8-2.6-2.6a1.172,1.172,0,0,0-1.657,0L2.344,14.573V7.5A1.173,1.173,0,0,1,3.516,6.327H14.3Z"/><g transform="translate(10.548 25.078)"><path class="b" d="M135.943,222.906H123.287a3.52,3.52,0,0,0-3.516,3.516v12.656a3.52,3.52,0,0,0,3.516,3.516h3.281v2.813a1.173,1.173,0,0,1-1.172,1.172H93.522a1.173,1.173,0,0,1-1.172-1.172v-2.812h24.767a1.172,1.172,0,0,0,0-2.344H92.35V215.172a1.172,1.172,0,0,0-2.344,0v30.234a3.52,3.52,0,0,0,3.516,3.516H125.4a3.52,3.52,0,0,0,3.516-3.516v-2.812h7.032a3.52,3.52,0,0,0,3.516-3.516V226.422A3.52,3.52,0,0,0,135.943,222.906Zm1.172,16.172a1.173,1.173,0,0,1-1.172,1.172H123.287a1.173,1.173,0,0,1-1.172-1.172V226.422a1.173,1.173,0,0,1,1.172-1.172h12.656a1.173,1.173,0,0,1,1.172,1.172Z" transform="translate(-90.006 -214)"/></g><g transform="translate(52.507 11.953)"><path class="a" d="M449.235,102a1.172,1.172,0,0,0-1.172,1.172v9.334a1.172,1.172,0,0,0,2.344,0v-9.334A1.172,1.172,0,0,0,449.235,102Z" transform="translate(-448.063 -102)"/></g><g transform="translate(52.507 25.747)"><path class="a" d="M450.06,220.053a1.171,1.171,0,1,0,.343.829A1.181,1.181,0,0,0,450.06,220.053Z" transform="translate(-448.06 -219.71)"/></g><g transform="translate(5.156 27.068)"><path class="a" d="M45.172,230.982A1.172,1.172,0,0,0,44,232.154v8.07a1.172,1.172,0,0,0,2.344,0v-8.07A1.172,1.172,0,0,0,45.172,230.982Z" transform="translate(-44 -230.982)"/></g><g transform="translate(45.876 38.904)"><path class="a" d="M399.408,334.7l-4.114-2.373a2.548,2.548,0,0,0-3.821,2.207v4.744a2.542,2.542,0,0,0,3.82,2.207l4.114-2.371a2.548,2.548,0,0,0,0-4.414Zm-1.171,2.384-4.114,2.371a.2.2,0,0,1-.306-.177v-4.744a.192.192,0,0,1,.1-.177.192.192,0,0,1,.2,0l4.114,2.373a.2.2,0,0,1,0,.353Z" transform="translate(-391.474 -331.983)"/></g></svg>