<svg xmlns="http://www.w3.org/2000/svg" xmlns:xlink="http://www.w3.org/1999/xlink" width="495.179" height="423.821" viewBox="0 0 495.179 423.821"><defs><style>.a{fill:none;}.b{fill:#e1e2f5;}.c{fill:#fff;}.aa,.af,.d,.e{fill:#262626;}.e{opacity:0.14;}.f{opacity:0.2;}.g{fill:#2034aa;}.h{fill:#0f267a;}.i{fill:#ffcbc2;}.j{fill:#e6aba1;}.ae,.k{fill:#b2d1ff;}.l{fill:#1c2a7a;}.m{fill:#fe9393;}.n{fill:#85abe5;}.o{fill:#f5c0b6;}.p{fill:#1a2ea5;}.q{fill:#435fea;}.r{fill:#15289a;}.s{fill:#ef7171;}.t{fill:#2c4ae2;}.u{fill:#3155ba;}.v{fill:#18004d;}.w{fill:#f7c2b8;}.x{fill:#ebecfc;}.y{fill:#bec0e1;}.z{clip-path:url(#a);}.aa{opacity:0.27;}.ab{clip-path:url(#b);}.ac{fill:#cfd0ef;}.ad{clip-path:url(#c);}.ae{opacity:0.3;}.af{opacity:0.22;}.ag{fill:#5588d4;opacity:0.42;}</style><clipPath id="a"><path class="a" d="M452.84,404.9c-6.134,8.456-16.059,15.224-25.279,18.8l-.137.091a33.883,33.883,0,0,1-8.851-36.889c3.372-8.527,10.138-15.316,13.917-23.667,3.3-7.291,4.164-15.4,5.95-23.2.276-1.213.586-2.435.93-3.647.133.048.267.091.408.134A5.055,5.055,0,0,0,443.146,327a25.081,25.081,0,0,1,6.444-7.686c5.02-3.893,12.938-5.041,17.413-.53,3.583,3.61,3.716,9.4,2.684,14.379-2.458,11.88-10.085,22.4-11.35,34.462-.757,7.224.841,14.506.47,21.758a24.576,24.576,0,0,1-1.262,6.561,4.329,4.329,0,0,0-.582-.236C451.1,393.809,448.058,402.266,452.84,404.9Z" transform="translate(-416.389 -315.867)"/></clipPath><clipPath id="b"><path class="a" d="M113.445,379.678a14.153,14.153,0,0,1-16.63-5.019,17.4,17.4,0,0,1-2.942-11.637,16.835,16.835,0,0,1,7.778-12.727,13.234,13.234,0,0,1,13.994.353C125.423,357.3,124.485,375.078,113.445,379.678Z" transform="translate(-93.786 -348.467)"/></clipPath><clipPath id="c"><path class="a" d="M123.665,411.845a9.646,9.646,0,0,1-6.281-10.034,11.848,11.848,0,0,1,3.71-7.29,11.47,11.47,0,0,1,9.7-3.042,9.021,9.021,0,0,1,7.021,6.458C139.846,405.739,131.392,414.438,123.665,411.845Z" transform="translate(-117.336 -391.313)"/></clipPath></defs><g transform="translate(-1102 -2417)"><path class="b" d="M300.728,478.861s-35.456-43.476,19.754-106.1S340.1,269.99,385.177,197.53s158.716-80.975,209.33,3.914c13.809,23.162,62.3,81.776,96.237,98.856,27.512,13.846,91.959,24.185,93.942,107.415.459,19.247-12.106,53.983-28.6,71.147Z" transform="translate(812.48 2361.959)"/><g transform="translate(1233.096 2736.4)"><path class="c" d="M149.628,448.031s-29.146-101.044,52.237-103.75c63.245-2.1,83.5,103.75,83.5,103.75" transform="translate(-144.552 -344.25)"/></g><g transform="translate(1254.476 2754.497)"><path class="d" d="M167.593,446.327a138.927,138.927,0,0,1-3.7-25.668,98.511,98.511,0,0,1,1.323-22.884c1.614-8.567,4.565-15.789,8.771-21.463,7.366-9.938,18.625-15.249,33.468-15.787,11.024-.4,21.23,3.883,30.335,12.727,7.243,7.036,13.806,16.963,19.507,29.5a205.171,205.171,0,0,1,13.626,43.332l-1.1.193A204.124,204.124,0,0,0,256.279,403.2c-5.643-12.409-12.126-22.218-19.268-29.154-8.877-8.621-18.806-12.8-29.512-12.407-14.486.525-25.459,5.685-32.613,15.337-5.141,6.936-11.027,20.134-9.877,43.63a137.736,137.736,0,0,0,3.659,25.439Z" transform="translate(-163.75 -360.5)"/></g><g transform="translate(1416.792 2716.076)"><path class="c" d="M412.853,450.205l-1.1-.2a286.472,286.472,0,0,0,3.8-42.416,178.168,178.168,0,0,0-2.793-35.946c-2.522-12.929-6.743-23.206-12.544-30.545-6.85-8.665-16.031-13.358-27.287-13.95-10.663-.561-20.571,5.5-29.444,18.008-7.158,10.094-13.656,24.365-19.311,42.419-9.643,30.786-13.525,62.281-13.564,62.595l-1.1-.134c.038-.315,3.932-31.911,13.606-62.794,5.69-18.165,12.239-32.541,19.466-42.73,9.108-12.842,19.343-19.062,30.41-18.476,11.591.609,21.046,5.445,28.1,14.372,5.912,7.48,10.208,17.921,12.764,31.03a179.344,179.344,0,0,1,2.812,36.181A287.759,287.759,0,0,1,412.853,450.205Z" transform="translate(-309.504 -326)"/></g><g transform="translate(1545.902 2813.453)"><path class="c" d="M425.44,440.169s47.2-60.138,43.579,0Z" transform="translate(-425.44 -413.441)"/></g><g transform="translate(1262.031 2637.785)"><path class="e" d="M201.321,458.453a443.565,443.565,0,0,1-21.729-63.422c-5.274-20.5-8.278-39.263-8.925-55.754-.812-20.659,2.092-37.809,8.633-50.974,8.011-16.128,21.587-26.494,40.349-30.811,17.808-4.1,33.427-1.174,46.421,8.689,8.588,6.518,16.1,16.125,22.31,28.557a167.394,167.394,0,0,1,12.352,34.876,253.837,253.837,0,0,1,6.261,38.99,178.28,178.28,0,0,1,11.273-26.541,125.693,125.693,0,0,1,15.762-23.591c7.087-8.193,14.751-14.2,22.779-17.864,13.828-6.3,28.875-5.733,44.723,1.695,12.867,6.031,21.741,16.025,26.378,29.7,3.725,10.987,4.756,24.475,3.068,40.088a213.461,213.461,0,0,1-9.141,41.144,320.915,320.915,0,0,1-18.274,45.1l-.989-.513a319.518,319.518,0,0,0,18.206-44.942,212.17,212.17,0,0,0,9.091-40.918c1.67-15.448.656-28.772-3.016-39.6-4.536-13.38-13.215-23.155-25.8-29.051-15.538-7.283-30.27-7.852-43.787-1.692-7.879,3.591-15.413,9.5-22.392,17.57a124.442,124.442,0,0,0-15.618,23.372,170.841,170.841,0,0,0-12.091,29.2l-1.091-.126a245.809,245.809,0,0,0-6.436-41.776,166.25,166.25,0,0,0-12.267-34.633c-6.138-12.272-13.534-21.746-21.984-28.157-12.719-9.653-28.026-12.508-45.5-8.489-18.422,4.237-31.745,14.4-39.6,30.221-6.456,13-9.321,29.964-8.517,50.435.645,16.412,3.636,35.092,8.891,55.52A442.332,442.332,0,0,0,202.337,458Z" transform="translate(-170.535 -255.697)"/></g><g class="f" transform="translate(1315.169 2417)"><circle class="g" cx="35.358" cy="35.358" r="35.358"/></g><g transform="translate(1403.493 2440.238)"><path class="d" d="M314.443,78.307q-6.388,8.716-11.945,18c-2.085,3.483-4.113,7.121-4.753,11.13s.365,8.511,3.492,11.1,8.715,3.812,10.9.389a15.256,15.256,0,0,0-2.213,27.562A16.575,16.575,0,0,0,322.072,148c4.052-1.035,12.913-7.4,15.5-10.689a41.063,41.063,0,0,0,30.926-1.128,23.76,23.76,0,0,0,9.995-7.776c2.414-3.527,3.369-8.234,1.716-12.176s-6.241-6.641-10.352-5.469c3.314-1.77,3.559-6.813,1.293-9.81s-6.121-4.3-9.816-4.979-7.323-1.029-10.96-2.463c-5.558-2.194-8.613-7.753-10-14.156" transform="translate(-297.562 -78.307)"/></g><g transform="translate(1393.445 2732.319)"><path class="d" d="M336.925,369.355l.14-28.77h-28.7l-18.749,21.588a4.353,4.353,0,0,0,3.291,7.207l25.364-.021s3.377-14.087,8.094,0Z" transform="translate(-288.539 -340.585)"/></g><g transform="translate(1526.403 2555.711)"><path class="d" d="M420.815,182l-12.884,25.131,24.982,14.133,26.949-9.558a4.353,4.353,0,0,0,.685-7.893L438.46,191.339s-9.876,10.6-7.045-3.983Z" transform="translate(-407.931 -181.998)"/></g><g transform="translate(1404.401 2545.828)"><path class="g" d="M378.281,173.124l-59.579,14.2L298.378,359.656h47.051l18.1-132.243Z" transform="translate(-298.378 -173.124)"/></g><g transform="translate(1454.535 2584.387)"><path class="h" d="M356.121,240.194l-12.606-32.446s-1.635,47.644,7.213,71.857Z" transform="translate(-343.396 -207.748)"/></g><g transform="translate(1454.654 2545.967)"><path class="g" d="M343.5,211.668s3.908,83.275,38.146,88.827,69.041-73.515,69.041-73.515l-34.8-20.324-20.881,33.687s-.278-28.676-21.716-67.1" transform="translate(-343.503 -173.248)"/></g><g transform="translate(1503.932 2600.422)"><path class="h" d="M389.98,234.788l-2.227,11.136,10.063-23.779Z" transform="translate(-387.753 -222.146)"/></g><g transform="translate(1428.827 2457.082)"><path class="i" d="M345.1,119.453l-1.571,9.306-23.218.408,2.194-7.3.619-16.729,15.14-11.71Z" transform="translate(-320.311 -93.432)"/></g><g transform="translate(1431.235 2465.785)"><path class="j" d="M332.168,103.451a19.577,19.577,0,0,1-9.7,11.76l.388-10.451,4.514-3.512C328.982,101.983,330.528,102.713,332.168,103.451Z" transform="translate(-322.473 -101.247)"/></g><g transform="translate(1416.65 2430.362)"><path class="i" d="M341.33,88.835l-.039.108-.312.883-6.656,18.555s-9.243,9.87-19.1,1.51c-5.4-4.58-7.183-16.838-4.828-26.669q.047-.209.1-.418c.081-.315.161-.627.251-.932l.039-.139c.131-.457.276-.905.429-1.345.014-.041.028-.084.045-.126,1.347-3.878,3.436-7.143,6.306-9.043a10.354,10.354,0,0,1,1.222-.7c.276-.139.56-.262.85-.373s.557-.2.843-.284c.139-.042.282-.078.427-.115.111-.027.225-.052.336-.077a11.112,11.112,0,0,1,2.1-.232c.067,0,.136,0,.2,0,6.22-.059,10.265,2.393,12.9,5.565a18,18,0,0,1,1.941,2.884,24.433,24.433,0,0,1,2.3,6.223c.2.893.343,1.706.44,2.4.033.248.065.479.089.694.048.434.081.791.1,1.062.017.248.024.427.028.512C341.33,88.815,341.33,88.835,341.33,88.835Z" transform="translate(-309.377 -69.438)"/></g><g transform="translate(1424.749 2450.754)"><path class="d" d="M318.815,97.451a2.167,2.167,0,0,1-2.161-2.3l.458-7.4,1.111.069-.458,7.4a1.044,1.044,0,0,0,.29.792,1.069,1.069,0,0,0,.778.325l.02,1.113Z" transform="translate(-316.649 -87.75)"/></g><g transform="translate(1431.293 2450.373)"><path class="d" d="M322.526,88.437c.01.56.343,1.01.744,1s.717-.468.707-1.028-.342-1.01-.743-1S322.516,87.876,322.526,88.437Z" transform="translate(-322.526 -87.408)"/></g><g transform="translate(1420.264 2450.567)"><path class="d" d="M312.622,88.61c.01.561.343,1.01.744,1s.717-.468.708-1.029-.343-1.01-.744-1S312.613,88.049,312.622,88.61Z" transform="translate(-312.622 -87.582)"/></g><g transform="translate(1429.082 2459.918)"><path class="d" d="M320.629,99.089l-.089-1.11a1.5,1.5,0,0,0,1.353-1.785l1.092-.215a2.613,2.613,0,0,1-2.356,3.11Z" transform="translate(-320.54 -95.979)"/></g><g transform="translate(1429.457 2446.338)"><path class="d" d="M325.132,84.056a2.992,2.992,0,0,1,.882.323c.252.155.43.383.392.6-.063.353-.644.51-1.161.561a9.344,9.344,0,0,1-3.392-.306c-.386-.109-.805-.275-.93-.545-.292-.628.876-.842,1.353-.88A9.526,9.526,0,0,1,325.132,84.056Z" transform="translate(-320.877 -83.784)"/></g><g transform="translate(1418.479 2446.483)"><path class="d" d="M314.656,83.937a2.485,2.485,0,0,1,.8.163c.235.1.415.283.405.483-.016.33-.5.557-.942.68a7.81,7.81,0,0,1-2.97.228c-.347-.041-.728-.129-.866-.355-.322-.526.666-.893,1.075-1A7.96,7.96,0,0,1,314.656,83.937Z" transform="translate(-311.019 -83.915)"/></g><g transform="translate(1334.878 2486.442)"><path class="i" d="M249.484,126.384c-1.156-2.474-1.442-6.443,1.066-6.583,2.624-.146,2.293,3.146,3.632,5.864a70.344,70.344,0,0,0,4.7,7.349l-12.082,12.6s-11.63-15.141-10.812-17.421c.49-1.366,1.57-.993,1.57-.993s-1.362-1.391-.984-2.488a1.549,1.549,0,0,1,1.571-.993,1.477,1.477,0,0,1,.334-2.185C239.94,120.642,244.848,123.367,249.484,126.384Z" transform="translate(-235.948 -119.797)"/><g transform="translate(1.996 3.4)"><path class="j" d="M244.426,128a27.473,27.473,0,0,0-6.686-4.109l.4-1.037a27.971,27.971,0,0,1,6.995,4.291Z" transform="translate(-237.74 -122.85)"/></g><g transform="translate(1.322 6.925)"><path class="j" d="M242.345,130.729a45.374,45.374,0,0,0-5.21-3.763l.579-.951a45.471,45.471,0,0,1,5.359,3.871Z" transform="translate(-237.135 -126.015)"/></g><g transform="translate(13.751 8.665)"><path class="j" d="M249.167,134.03a6.354,6.354,0,0,1,.019-6.452l.95.581a5.215,5.215,0,0,0-.016,5.3Z" transform="translate(-248.296 -127.578)"/></g></g><g transform="translate(1418.461 2492.791)"><path class="k" d="M376.986,178.674c-31.182,20.6-59.579,14.2-59.579,14.2L311,155.009,371.974,125.5l4.282,45.43Z" transform="translate(-311.003 -125.498)"/></g><g transform="translate(1475.102 2543.122)"><path class="l" d="M388.09,254.719c-2.116,0-4.026-1.091-5.681-3.247-3.246-4.23-4.618-13.728-6.354-25.755-2.358-16.324-5.293-36.641-14.19-54.562l.933-.462c8.972,18.07,11.919,38.477,14.287,54.875,1.715,11.876,3.069,21.256,6.151,25.271,1.562,2.036,3.271,2.963,5.216,2.827,6.9-.475,14.686-14.171,17.619-19.327.184-.323.351-.617.5-.876,4.8-8.345,8.447-15.218,12.607-23.719l.936.457c-4.172,8.524-7.834,15.413-12.64,23.781-.149.258-.315.551-.5.873-3.291,5.786-11,19.337-18.452,19.849C388.378,254.714,388.233,254.719,388.09,254.719Z" transform="translate(-357.789 -164.815)"/></g><g transform="translate(1470.673 2577.76)"><path class="m" d="M363.667,212.119c-2.163,2.7-4.372,3.336-5.6,2.02-1.011-1.081,2.5-4.99,5.98-7.853a55.112,55.112,0,0,0,4.7-4.489l14.335,9.958s-13.13,13.86-15.509,13.409c-1.427-.27-1.227-1.394-1.227-1.394s-1.16,1.564-2.3,1.362a1.549,1.549,0,0,1-1.227-1.4,1.476,1.476,0,0,1-2.211.011C359.493,222.446,361.414,217.172,363.667,212.119Z" transform="translate(-357.888 -201.797)"/><g transform="translate(4.377 14.24)"><path class="d" d="M362.906,222.4l-1.088-.237a28.031,28.031,0,0,1,3.142-7.58l.957.57A27.422,27.422,0,0,0,362.906,222.4Z" transform="translate(-361.818 -214.584)"/></g><g transform="translate(7.936 15.863)"><path class="d" d="M366.044,222.362l-1.03-.422a45.615,45.615,0,0,1,2.983-5.9l.947.587A45.526,45.526,0,0,0,366.044,222.362Z" transform="translate(-365.014 -216.041)"/></g></g><g transform="translate(1337.445 2479.181)"><path class="k" d="M401.957,231.568l-30.068-19.489,16.7-32.017-3.079-5.857-8.336-15.859L342.1,149.995s-6.546,17.237-18.679,30.951c-1.233,1.389-2.519,2.742-3.864,4.039-6.576,6.343-14.507,11.3-23.672,12.339-28.017,3.172-57.63-49.835-57.63-49.835l19.488-18.375,30.9,26.727s8.631-16.7,15.312-24.221,28.119-11.972,28.119-11.972c6.125,11.415,22.273-2.506,22.273-2.506s22.273-5.568,29.79-3.341,38.142,32.017,40.091,58.187S401.957,231.568,401.957,231.568Z" transform="translate(-238.253 -113.276)"/></g><g transform="translate(1418.748 2524.201)"><path class="n" d="M315.124,176.352c-1.233,1.389-2.519,2.742-3.864,4.039l.033-26.688Z" transform="translate(-311.26 -153.703)"/></g><g transform="translate(1417.667 2431.445)"><path class="d" d="M318.681,70.411a13.853,13.853,0,0,1-.67,4.3,13.519,13.519,0,0,1-1.206,2.7,13.843,13.843,0,0,1-6.515,5.7q.047-.209.1-.418c.081-.315.161-.627.251-.932l.039-.139c.131-.457.276-.905.429-1.345.014-.041.028-.084.045-.126,1.347-3.878,3.435-7.143,6.306-9.043A10.353,10.353,0,0,1,318.681,70.411Z" transform="translate(-310.29 -70.411)"/></g><g transform="translate(1424.837 2430.362)"><path class="d" d="M340.278,86.508a19.8,19.8,0,0,1-3.766.548,20.577,20.577,0,0,1-13.653-4.381,16.79,16.79,0,0,1-5.045-6.384,12.972,12.972,0,0,1-.535-1.467,12.738,12.738,0,0,1-.551-3.6,10.35,10.35,0,0,1,1.222-.7c.276-.139.56-.262.85-.373s.557-.2.843-.284c.139-.042.282-.078.426-.115.111-.027.225-.052.336-.077a11.111,11.111,0,0,1,2.1-.232c.067,0,.136,0,.2,0,6.22-.059,10.265,2.393,12.9,5.565a18,18,0,0,1,1.941,2.884,24.432,24.432,0,0,1,2.3,6.223C340.042,85,340.181,85.817,340.278,86.508Z" transform="translate(-316.728 -69.438)"/></g><g transform="translate(1444.021 2446.905)"><path class="o" d="M333.955,86.166a3.683,3.683,0,0,1,3.217-1.872,5.208,5.208,0,0,1,3.524,1.471,6.541,6.541,0,0,1-6.629,10.959" transform="translate(-333.955 -84.294)"/></g><g transform="translate(1445.84 2450.208)"><path class="d" d="M337.462,92.507a5.637,5.637,0,0,0-1.874-4.114l.337-.973,2.9-.16.062,1.111-1.716.1a6.776,6.776,0,0,1,1.4,4.031Z" transform="translate(-335.588 -87.26)"/></g><g transform="translate(1138.604 2539.646)"><path class="c" d="M211.271,273.213l-.6-.942c11.6-7.339,20.373-16.786,25.375-27.317,5.661-11.915,6.293-25.556,1.695-36.487-5.051-12.006-16.537-20.5-28.582-21.128-6.394-.335-12.783,1.412-18.962,3.1l-1.366.373c-6.712,1.824-13.849,3.509-20.83,2.36a22.547,22.547,0,0,1-4.458-1.225,28.189,28.189,0,0,1-11.8,7.114c-4.83,1.5-11.257,2.652-25.461.892-1.239-.153-2.48-.315-3.722-.478-7.056-.924-14.351-1.881-21.477-1.118a45.094,45.094,0,0,0-39.5,53.29l-1.094.208a46.209,46.209,0,0,1,40.477-54.607c7.256-.776,14.62.188,21.74,1.121q1.859.244,3.714.478c13.994,1.734,20.283.616,24.993-.851a27.183,27.183,0,0,0,11.03-6.513c-4.679-2.1-8.86-5.886-10.127-11.231a11.636,11.636,0,0,1,1.891-9.308,7.794,7.794,0,0,1,5.686-3.355,7.593,7.593,0,0,1,6.37,2.758,13.663,13.663,0,0,1,2.97,11.147,20.351,20.351,0,0,1-4.869,9.569,21.377,21.377,0,0,0,3.822,1.007c6.761,1.113,13.764-.543,20.358-2.335l1.364-.373c6.263-1.713,12.74-3.486,19.314-3.14,12.463.653,24.337,9.417,29.55,21.808,4.721,11.22,4.079,25.2-1.715,37.4C231.964,256.153,223.047,265.761,211.271,273.213ZM160.458,168.686c-.157,0-.318.007-.482.018a6.674,6.674,0,0,0-4.87,2.9A10.641,10.641,0,0,0,153.4,180c1.212,5.109,5.316,8.7,9.865,10.635a19.38,19.38,0,0,0,4.875-9.344,12.5,12.5,0,0,0-2.707-10.2A6.67,6.67,0,0,0,160.458,168.686Z" transform="translate(-59.701 -167.571)"/></g><g transform="translate(1390.739 2636.977)"><path class="i" d="M286.109,286.386l10.341,9.191,16.486-6.221-2.1-34.385-12.77,6.322-6.736,3.335-1.011,9.408-.606,5.64Z" transform="translate(-286.109 -254.971)"/></g><g transform="translate(1394.953 2643.298)"><path class="j" d="M297.641,260.648l-6.736,3.335-1.011,9.408a19.581,19.581,0,0,0,12-9.626C300.435,262.715,299.067,261.69,297.641,260.648Z" transform="translate(-289.893 -260.648)"/></g><g transform="translate(1385.977 2607.383)"><path class="i" d="M314.7,250.305c-.013.114-.028.217-.039.308-.045.368-.084.571-.084.571l-.543.9-.86,1.423-9.371,15.42s-11.025,7.823-19.013-2.336c-4.59-5.849-3.58-19.212,1.286-28.467a27.565,27.565,0,0,1,1.616-2.7c3.262-4.806,7.756-7.83,13.138-6.832,6.225,1.155,9.752,4.4,11.719,8.068a18.1,18.1,0,0,1,1.307,3.157A26.439,26.439,0,0,1,314.7,250.305Z" transform="translate(-281.833 -228.397)"/></g><g transform="translate(1393.603 2626.466)"><path class="d" d="M290.451,255.383a2.164,2.164,0,0,1-1.695-2.692l1.928-7.158,1.076.29-1.928,7.158a1.05,1.05,0,0,0,.823,1.307Z" transform="translate(-288.681 -245.533)"/></g><g transform="translate(1401.411 2627.441)"><path class="d" d="M295.716,247.284c-.1.551.134,1.058.528,1.131s.8-.315.9-.866-.134-1.058-.528-1.131S295.819,246.733,295.716,247.284Z" transform="translate(-295.693 -246.409)"/></g><g transform="translate(1390.569 2625.427)"><path class="d" d="M285.98,245.474c-.1.551.134,1.058.528,1.131s.8-.314.9-.866-.134-1.058-.528-1.13S286.083,244.923,285.98,245.474Z" transform="translate(-285.957 -244.6)"/></g><g transform="translate(1397.032 2636.698)"><path class="d" d="M292.064,257.324a2.507,2.507,0,0,1-.3-.019l.135-1.106a1.5,1.5,0,0,0,1.682-1.478l1.114.008a2.613,2.613,0,0,1-2.626,2.595Z" transform="translate(-291.76 -254.721)"/></g><g transform="translate(1400.477 2622.99)"><path class="d" d="M299.265,243.218a2.273,2.273,0,0,1,.755.589.935.935,0,0,1,.166.889c-.195.478-.829.6-1.361.586a6.535,6.535,0,0,1-3.251-.97,1.3,1.3,0,0,1-.719-.9c-.056-.913,1.183-1.02,1.669-.993A6.629,6.629,0,0,1,299.265,243.218Z" transform="translate(-294.853 -242.412)"/></g><g transform="translate(1389.65 2621.1)"><path class="d" d="M288.941,241.038a1.971,1.971,0,0,1,.741.4.82.82,0,0,1,.274.744c-.1.443-.628.641-1.09.708a5.709,5.709,0,0,1-2.957-.36c-.329-.133-.678-.339-.756-.674-.183-.783.873-1.058,1.3-1.107A5.8,5.8,0,0,1,288.941,241.038Z" transform="translate(-285.131 -240.714)"/></g><g transform="translate(1429.708 2791.608)"><path class="d" d="M352.438,393.825l-28.979,1.137L321.1,422.736,341.4,441.255a4.353,4.353,0,0,0,7.272-2.85l2.2-24.759s-6.263-5.339.673-9.294Z" transform="translate(-321.102 -393.825)"/></g><g transform="translate(1276.609 2728.818)"><path class="p" d="M314.814,394.383a41.407,41.407,0,0,1-6.663,4.6,40.1,40.1,0,0,1-11.907,4.443l-12.25,31.182s-1.064.357-2.973.944c-.2.063-.418.128-.638.195-11.058,3.346-45.2,12.714-69.9,8.931q-1.749-.264-3.436-.624c-10.721-2.288-19.2-7.448-22.442-17.242-11.476-34.69,81.852-89.369,81.852-89.369l61.806,11.693C331.747,373.262,323.706,386.84,314.814,394.383Z" transform="translate(-183.625 -337.442)"/></g><path class="q" d="M335.679,339.891l-15.869,14.756c-.677.115-1.345.226-2.008.326q-4.1.638-7.879.971c-36.791,3.319-51.92-12.99-51.92-12.99L269.7,309.544l11.136-20.6h32.574Z" transform="translate(1101.436 2385.865)"/><g transform="translate(1293.836 2754.989)"><path class="r" d="M279.263,432.88c-.2.063-.418.128-.638.195-11.058,3.346-45.2,12.714-69.9,8.931a23.748,23.748,0,0,1-8.895-12.3c-8.352-33.687,57.352-68.767,57.352-68.767l-8.352,52.341Z" transform="translate(-199.094 -360.942)"/></g><g transform="translate(1298.041 2754.989)"><path class="p" d="M256.751,360.942s-61.076,39.794-53.176,64.869c6.4,20.324,37.863,20.324,37.863,20.324h93.823l4.176-50.67-77.119,1.949" transform="translate(-202.87 -360.942)"/></g><g transform="translate(1399.193 2741.944)"><path class="d" d="M308.127,387.384c-6.831-1.324-11.293-4.4-13.262-9.15-2-4.814-1.422-11.17,1.708-18.889a62.107,62.107,0,0,1,5.271-10.117l.923.622c-.114.17-11.38,17.1-6.873,27.959,1.817,4.38,6,7.233,12.445,8.481Z" transform="translate(-293.701 -349.228)"/></g><g transform="translate(1360.232 2785.759)"><path class="r" d="M306.281,388.573a41.408,41.408,0,0,1-6.663,4.6l-40.9,1.033Z" transform="translate(-258.715 -388.573)"/></g><path class="i" d="M232.123,268.643c.143-2.728,1.756-6.367,4.035-5.311,2.384,1.1.546,3.855.45,6.883a70.072,70.072,0,0,0,.7,8.7l-16.585,5.44s-1.757-13.262.037-14.89a1.256,1.256,0,0,1,1.852-.138,3.882,3.882,0,0,1,.743-2.6,1.852,1.852,0,0,1,1.949-.278s-1.978-6.511-.607-7.261C226.691,258.095,229.449,263.8,232.123,268.643Z" transform="translate(1097.112 2382.469)"/><path class="j" d="M228.143,275.463a6.355,6.355,0,0,1,3.048-5.687l.566.96a5.212,5.212,0,0,0-2.5,4.667Z" transform="translate(1098.042 2383.688)"/><path class="j" d="M223.437,272.389a27.847,27.847,0,0,0-1.548-3.839l1-.5a28.6,28.6,0,0,1,1.62,4.021Z" transform="translate(1097.332 2383.491)"/><path class="j" d="M226.491,271.421a35.247,35.247,0,0,0-2.186-5.455l1-.5a35.658,35.658,0,0,1,2.27,5.682Z" transform="translate(1097.607 2383.198)"/><g transform="translate(1396.055 2764.47)"><path class="m" d="M297.234,377.9c-2.844,1.969-5.143,1.95-5.947.336-.66-1.324,3.823-4.067,7.975-5.818a55.3,55.3,0,0,0,5.783-2.961l10.895,13.636s-16.542,9.534-18.694,8.422c-1.288-.666-.777-1.687-.777-1.687s-1.558,1.167-2.6.647a1.547,1.547,0,0,1-.777-1.687s-1.492.81-2.121-.62C290.285,386.6,293.633,382.1,297.234,377.9Z" transform="translate(-290.883 -369.456)"/></g><g transform="translate(1397.779 2777.165)"><path class="s" d="M293.405,387.761l-.974-.538a28.022,28.022,0,0,1,5.175-6.368l.754.82A27.479,27.479,0,0,0,293.405,387.761Z" transform="translate(-292.431 -380.855)"/></g><g transform="translate(1401.207 2779.69)"><path class="s" d="M296.377,388.623l-.868-.7a45.724,45.724,0,0,1,4.544-4.8l.739.833A45.223,45.223,0,0,0,296.377,388.623Z" transform="translate(-295.509 -383.123)"/></g><g transform="translate(1311.274 2657.268)"><path class="q" d="M364.536,355.322c-1.67,22.551-36.193,44.267-36.193,44.267l-21.437-22.551,20.881-26.727-3.341-19.767-38.142-30.9s-3.678,29.03-22.326,42.071a34.359,34.359,0,0,1-5.442,3.115,33.711,33.711,0,0,1-7.589,2.422c-30.068,5.847-36.193-65.426-36.193-65.426l28.119-8.631,9.466,34.244s18.375-25.057,23.386-28.119,21.994-1.67,21.994-1.67c-.557,18.1,23.024,4.683,23.024,4.683s18.18,5.34,23.748,10.63S366.265,332,364.536,355.322Z" transform="translate(-214.753 -273.192)"/></g><g transform="translate(1411.359 2709.887)"><path class="t" d="M317.574,344.942l-5.07,6.451q-4.1.638-7.879.971l9.887-8.536L313.4,320.442Z" transform="translate(-304.625 -320.442)"/></g><g transform="translate(1355.057 2695.41)"><path class="u" d="M270.143,307.442,259.51,337.82a34.355,34.355,0,0,1-5.442,3.115Z" transform="translate(-254.068 -307.442)"/></g><g transform="translate(1389.494 2610.755)"><path class="d" d="M304.357,235.819a6.894,6.894,0,0,1-1.653,3.865,4.868,4.868,0,0,1-3.854,1.354c-1.321-.065-3.826-1.735-2.991-4.241-2.227,2.784-7.107,2.464-8.631,1.67s-2.657-2.532-2.087-4.153a4.069,4.069,0,0,1,2.492-2.3,12.1,12.1,0,0,1,3.447-.568c4.078-.271,7.906,2.453,11.806,3.675" transform="translate(-284.991 -231.425)"/></g><g transform="translate(1414.287 2618.583)"><path class="d" d="M311.81,249.163l-2.433-.334a16.451,16.451,0,0,1-1.96-10.373c1.189.053,2.37.137,3.549.215A26.441,26.441,0,0,1,311.81,249.163Z" transform="translate(-307.254 -238.455)"/></g><g transform="translate(1394.799 2607.384)"><path class="d" d="M313.815,244.006l-24.06-12.1a11.457,11.457,0,0,1,10.173-3.317c6.225,1.155,9.752,4.4,11.719,8.068A20.484,20.484,0,0,1,313.815,244.006Z" transform="translate(-289.755 -228.398)"/></g><g transform="translate(1411.937 2627.695)"><path class="o" d="M307.793,247.724a3.686,3.686,0,0,1,3.594-.966,5.2,5.2,0,0,1,3.016,2.34,6.538,6.538,0,0,1-9.259,8.844" transform="translate(-305.144 -246.637)"/></g><g transform="translate(1416.193 2630.82)"><path class="d" d="M309.9,255.137l-.932-.611a5.633,5.633,0,0,0,.725-4.46l.821-.623,2.5,1.476-.566.959-1.48-.873A6.792,6.792,0,0,1,309.9,255.137Z" transform="translate(-308.966 -249.443)"/></g><g transform="translate(1415.875 2789.86)"><rect class="d" width="50.647" height="1.114" transform="matrix(0.099, -0.995, 0.995, 0.099, 0, 50.397)"/></g><g transform="translate(1339.978 2732.509)"><path class="d" d="M244.926,350.878a9.013,9.013,0,0,1-4.4-1.023l.536-.977c7.683,4.216,23.753-8,23.914-8.122l.678.884a67.565,67.565,0,0,1-9.312,5.8C251.836,349.731,248.016,350.878,244.926,350.878Z" transform="translate(-240.528 -340.756)"/></g><g transform="translate(1122.605 2594.968)"><path class="v" d="M45.334,227.55,61.2,411.3l143.658-36.471,20.233-157.578Z" transform="translate(-45.334 -217.249)"/></g><g transform="translate(1130.587 2608.331)"><path class="c" d="M211.194,229.249l-4.176,33.409-2.676,21.4-4.825,38.615-.894,7.141-.05.4-4.363,34.9L171.045,369.4,80.827,390.883l-9.672,1.79-5.827-49.053-.891-7.495-1.963-16.518-.306-2.575L58.2,283.624l-5.7-47.972Z" transform="translate(-52.502 -229.249)"/></g><g transform="translate(1194.179 2623.305)"><path class="i" d="M109.606,267.221l.006,9.437,22.828,4.253-.953-7.559,2.164-16.6-12.988-14.059Z" transform="translate(-109.606 -242.694)"/></g><g transform="translate(1209.198 2633.652)"><path class="j" d="M123.092,253.365a19.572,19.572,0,0,0,7.609,13.2l1.351-10.37-3.868-4.213C126.476,252.446,124.832,252.908,123.092,253.365Z" transform="translate(-123.092 -251.986)"/></g><g transform="translate(1204.652 2599.275)"><path class="i" d="M141.266,262.716a12.64,12.64,0,0,1-9.377,1.817h0a15.464,15.464,0,0,1-7.743-4.683l0,0a15.436,15.436,0,0,1-1.462-1.787l-1.656-9.206-.482-2.684-.88-4.9-.251-1.386-.219-1.227-.161-.922-.02-.114s0-.02.011-.059c.02-.084.056-.258.115-.5.061-.264.153-.609.273-1.03l.008-.03c.076-.254.159-.532.256-.833.2-.62.454-1.334.768-2.1a24.506,24.506,0,0,1,3.3-5.754,18.082,18.082,0,0,1,2.394-2.523c3.118-2.689,7.515-4.437,13.64-3.349.067.011.134.022.2.037a11.107,11.107,0,0,1,2.029.576q.159.062.317.134c.137.058.273.117.4.182.267.128.527.267.777.414l.008.006c.122.072.243.145.36.226,2.829,1.825,4.674,4.952,5.687,8.685.217.791.4,1.613.538,2.453.008.045.017.087.022.131.078.459.147.924.2,1.4l.017.144c.036.315.063.638.091.961C151.247,246.969,147.43,259.044,141.266,262.716Z" transform="translate(-119.01 -221.117)"/></g><g transform="translate(1224.231 2620.526)"><path class="d" d="M136.985,249.628a2.132,2.132,0,0,1-.394-.036l.2-1.095a1.052,1.052,0,0,0,1.238-.924l.776-7.374,1.108.117-.776,7.374a2.165,2.165,0,0,1-2.156,1.938Z" transform="translate(-136.591 -240.199)"/></g><g transform="translate(1220 2619.131)"><path class="d" d="M134.242,240.087c-.1.551-.5.939-.9.865s-.63-.579-.528-1.131.506-.939.9-.865S134.346,239.536,134.242,240.087Z" transform="translate(-132.792 -238.947)"/></g><g transform="translate(1230.844 2621.152)"><path class="d" d="M143.98,241.9c-.1.551-.506.939-.9.865s-.629-.579-.527-1.131.506-.939.9-.865S144.082,241.349,143.98,241.9Z" transform="translate(-142.53 -240.761)"/></g><g transform="translate(1219.643 2628.631)"><path class="d" d="M134.443,250.936a2.615,2.615,0,0,1-1.807-3.459l1.042.394a1.5,1.5,0,0,0,1.037,1.984Z" transform="translate(-132.471 -247.477)"/></g><g transform="translate(1218.452 2615.122)"><path class="d" d="M132.811,235.368a3.034,3.034,0,0,0-.923.173c-.274.111-.489.307-.486.525,0,.36.549.61,1.051.746a9.32,9.32,0,0,0,3.4.262,1.469,1.469,0,0,0,1.008-.383c.392-.571-.725-.977-1.188-1.091A9.559,9.559,0,0,0,132.811,235.368Z" transform="translate(-131.402 -235.347)"/></g><g transform="translate(1230.015 2616.946)"><path class="d" d="M143.082,237.005a2.442,2.442,0,0,0-.814.027c-.249.062-.457.211-.481.409-.039.329.4.634.817.829a7.81,7.81,0,0,0,2.891.717,1.2,1.2,0,0,0,.913-.207c.4-.464-.509-.991-.894-1.162A7.949,7.949,0,0,0,143.082,237.005Z" transform="translate(-141.785 -236.984)"/></g><g transform="translate(1199.681 2614.146)"><path class="w" d="M123.776,236.693a3.684,3.684,0,0,0-3.007-2.195,5.207,5.207,0,0,0-3.656,1.1,6.54,6.54,0,0,0,5.459,11.586Z" transform="translate(-114.546 -234.47)"/></g><g transform="translate(1203.439 2617.267)"><path class="d" d="M119.028,242.634l-1.107-.124a6.768,6.768,0,0,1,1.815-3.864l-1.7-.273.177-1.1,2.868.461.235,1A5.637,5.637,0,0,0,119.028,242.634Z" transform="translate(-117.921 -237.273)"/></g><g transform="translate(1269.042 2811.375)"><path class="d" d="M176.83,440.352l.81-28.777,30.657.009,16.729,21.795a4.352,4.352,0,0,1-3.457,7l-26.082-.023s-4.825-14.389-8.094,0Z" transform="translate(-176.83 -411.575)"/></g><g transform="translate(1281.883 2624.602)"><path class="i" d="M195.237,251.915c.332-2.712-.629-6.574-3.056-5.928-2.54.676-1.2,3.7-1.633,6.7a70.245,70.245,0,0,1-2.188,8.445l15.4,8.224s6.356-18,4.87-19.917c-.89-1.146-1.8-.457-1.8-.457s.863-1.745.163-2.67a1.548,1.548,0,0,0-1.8-.457s.525-1.615-1-1.973C202.526,243.494,198.708,247.608,195.237,251.915Z" transform="translate(-188.36 -243.859)"/></g><g transform="translate(1293.04 2626.17)"><path class="j" d="M199.322,252.11l-.943-.592a28.019,28.019,0,0,1,5.315-6.251l.707.861A27.414,27.414,0,0,0,199.322,252.11Z" transform="translate(-198.379 -245.267)"/></g><g transform="translate(1296.032 2629.366)"><path class="j" d="M202.02,254.056l-.954-.576a45.789,45.789,0,0,1,3.892-5.343l.845.725A45.312,45.312,0,0,0,202.02,254.056Z" transform="translate(-201.066 -248.137)"/></g><g transform="translate(1287.632 2634.975)"><path class="j" d="M196.266,259.3l-1.085-.252a5.214,5.214,0,0,0-1.658-5.029l.723-.848A6.355,6.355,0,0,1,196.266,259.3Z" transform="translate(-193.523 -253.174)"/></g><g transform="translate(1142.522 2704.649)"><path class="g" d="M234.755,422.379h-50.67l-14.258-62.808-.219-1.5-74.015,1.679-4.126.269-11.857,21.04-9.672,1.79L64.11,333.793l-.891-7.495,7.275-10.271.481.023,0,0,56.589,2.758a293.185,293.185,0,0,1,36.958-3.059c12.12-.145,24.589.788,32.88,4.232.193.08.384.161.571.243a17.951,17.951,0,0,1,6.71,4.709C218.05,341.084,234.755,422.379,234.755,422.379Z" transform="translate(-63.219 -315.738)"/></g><g transform="translate(1170.769 2731.11)"><path class="h" d="M100.462,339.5l-7.751,17.546-4.127.27Z" transform="translate(-88.584 -339.5)"/></g><g transform="translate(1136.286 2637.842)"><path class="k" d="M222.584,267.441s-7.932,36.528-23.648,52.219c-3.591,3.583-7.587,6.08-11.988,6.8-21.469,3.537-41.286-8.692-48.393-13.546-1.208-.827-2.049-1.44-2.467-1.727a2.919,2.919,0,0,0-.256-.16.06.06,0,0,0-.022-.011l-1.8,3.466-5.8,11.144s-32.416,12.088-56.589-2.758c-.161-.1-.323-.2-.484-.3l7.517-20.881L61.893,316.6l-.306-2.576-3.968-33.409C70.944,265.492,77,264.1,83.659,264.1c10.579,0,31.738,1.949,31.738,1.949s11.693,17.54,21.994,5.847c0,0,16.089-1.617,22.273,1.949,7.239,4.176,18.653,15.034,18.653,15.034l20.045-33.13Z" transform="translate(-57.619 -255.748)"/></g><g transform="translate(1214.478 2676.089)"><path class="n" d="M136.7,290.093l-6.119,18.922c-1.208-.827-2.049-1.44-2.467-1.727a1.033,1.033,0,0,0-.256-.16.059.059,0,0,0-.022-.011Z" transform="translate(-127.833 -290.093)"/></g><g transform="translate(1205.315 2599.275)"><path class="d" d="M143.8,223.018a15.281,15.281,0,0,1-.148,2.655,10.586,10.586,0,0,1-.562,2.188,6.954,6.954,0,0,1-4.967,4.538c-2.786.5-5.635-1.235-8.41-.667a11.7,11.7,0,0,0-4.093,2.159,7.958,7.958,0,0,1-4.246,1.746,3.569,3.569,0,0,1-1.765-.468c.2-.62.454-1.334.768-2.1a24.506,24.506,0,0,1,3.3-5.754,18.08,18.08,0,0,1,2.394-2.523c3.118-2.689,7.515-4.437,13.64-3.349.067.011.134.022.2.037a11.107,11.107,0,0,1,2.029.576q.159.062.317.134c.137.058.273.117.4.182.267.128.527.267.777.414Z" transform="translate(-119.605 -221.117)"/></g><g transform="translate(1229.122 2600.945)"><path class="d" d="M141.367,222.848c2.829,1.825,4.674,4.952,5.687,8.685a6.432,6.432,0,0,1-2.172-.754,7.922,7.922,0,0,1-3.6-4.989c-.025-.095-.047-.193-.067-.287a10.911,10.911,0,0,1-.219-2.887Z" transform="translate(-140.983 -222.616)"/></g><g transform="translate(1210.851 2588.285)"><path class="d" d="M129.543,225.588a7.449,7.449,0,0,0,7.585-1.32,7.472,7.472,0,0,0-2.254-12.5,7.845,7.845,0,0,0-7.268.89C122.661,216.129,124.1,223.372,129.543,225.588Z" transform="translate(-124.576 -211.248)"/></g><g transform="translate(1251.974 2669.024)"><path class="n" d="M166.514,285.7l-2.227-1.949L161.5,293.771Z" transform="translate(-161.503 -283.749)"/></g><g transform="translate(1260.668 2798.753)"><rect class="d" width="50.987" height="1.114"/></g><g transform="translate(1261.196 2758.614)"><rect class="d" width="1.114" height="54.257" transform="matrix(0.968, -0.25, 0.25, 0.968, 0, 0.278)"/></g><g transform="translate(1332.099 2436.21)"><path class="q" d="M269.8,97.719c-1.148,4.8-4.058,8.9-6.629,13.065a45.213,45.213,0,0,0-2.853,5.259,19.037,19.037,0,0,0-1.893,8.483c.137,3.629-2.147,8.213-6.349,8.213-4.487,0-6.886-4.049-6.731-8.213a19.037,19.037,0,0,0-1.893-8.483,45.208,45.208,0,0,0-2.853-5.259c-2.571-4.166-5.479-8.269-6.629-13.065a19.539,19.539,0,0,1,3.1-15.749c3.217-4.431,9.445-7.28,14.815-7.28s11.594,2.849,14.811,7.28A19.526,19.526,0,0,1,269.8,97.719Z" transform="translate(-233.453 -74.69)"/><g transform="translate(10.99 19.346)"><path class="c" d="M254.489,114.39l-.939-.6c2.544-4,4.357-14.225,3.129-17.65-.139-.389-.387-.879-.777-1.007-.925-.3-1.736.858-2.137,1.575-.1.185-.2.373-.29.566a18.878,18.878,0,0,1,.383,4.2c-.076,1.594-.511,2.4-1.292,2.4h-.006a1.135,1.135,0,0,1-1.033-.749c-.5-1.14-.133-3.828.79-5.987a15.689,15.689,0,0,0-.462-1.646c-.569-1.652-1.193-2.278-1.587-2.315-.523-.045-1.239.886-1.7,3.064,1.11,2.274,1.654,5.833,1.247,7.136a.971.971,0,0,1-.7.748,1.184,1.184,0,0,1-1.255-.521c-.857-1.153-.964-4.456-.457-7.2-.082-.147-.169-.285-.258-.414-.4-.575-.785-.826-1.139-.743a1.644,1.644,0,0,0-1.109,1.062c-1.375,3.106.421,11.78,3.626,17.512l-.972.543c-3.062-5.476-5.334-14.753-3.672-18.506a2.721,2.721,0,0,1,1.876-1.7,1.953,1.953,0,0,1,1.931.727l.061.067a7.621,7.621,0,0,1,.62-1.531c.678-1.208,1.46-1.4,2-1.354,1.258.114,2.148,1.7,2.716,3.614a5.741,5.741,0,0,1,.535-.7,2.393,2.393,0,0,1,2.627-.908,2.494,2.494,0,0,1,1.48,1.689c.667,1.86.626,5.246-.112,9.291A28.96,28.96,0,0,1,254.489,114.39Zm-6.236-15.857c-.169,2.35.19,4.12.527,4.455A11.83,11.83,0,0,0,248.252,98.533Zm4.442,1.043a6.475,6.475,0,0,0-.155,3.106A7.8,7.8,0,0,0,252.694,99.577Z" transform="translate(-243.321 -92.062)"/></g><g transform="translate(9.994 41.352)"><path class="d" d="M257.4,120.306c.137,3.629-2.147,8.213-6.349,8.213-4.487,0-6.886-4.049-6.731-8.213a19.037,19.037,0,0,0-1.893-8.483h16.866A19.037,19.037,0,0,0,257.4,120.306Z" transform="translate(-242.427 -111.823)"/></g></g><g transform="translate(1535.823 2704.792)"><path class="x" d="M452.84,404.9c-6.134,8.456-16.059,15.224-25.279,18.8l-.137.091a33.883,33.883,0,0,1-8.851-36.889c3.372-8.527,10.138-15.316,13.917-23.667,3.3-7.291,4.164-15.4,5.95-23.2.276-1.213.586-2.435.93-3.647.133.048.267.091.408.134A5.055,5.055,0,0,0,443.146,327a25.081,25.081,0,0,1,6.444-7.686c5.02-3.893,12.938-5.041,17.413-.53,3.583,3.61,3.716,9.4,2.684,14.379-2.458,11.88-10.085,22.4-11.35,34.462-.757,7.224.841,14.506.47,21.758a24.576,24.576,0,0,1-1.262,6.561,4.329,4.329,0,0,0-.582-.236C451.1,393.809,448.058,402.266,452.84,404.9Z" transform="translate(-416.389 -315.867)"/><g transform="translate(1.331 24.232)"><rect class="y" width="116.926" height="1.165" transform="matrix(0.315, -0.949, 0.949, 0.315, 0, 110.974)"/></g><g class="z"><g transform="translate(8.263 34.613)"><g transform="translate(19.112 0)"><rect class="y" width="33.64" height="1.165" transform="translate(0 22.366) rotate(-41.673)"/></g><g transform="translate(0 9.322)"><rect class="y" width="1.166" height="37.16" transform="translate(0 0.365) rotate(-18.265)"/></g></g><g transform="translate(22.964 6.099)"><rect class="y" width="1.166" height="38.462" transform="translate(0 0.269) rotate(-13.356)"/></g><g transform="translate(17.522 67.679)"><rect class="y" width="34.019" height="1.166" transform="matrix(0.822, -0.57, 0.57, 0.822, 0, 19.377)"/></g></g></g><path class="c" d="M362.714,450.057c-6.489-27.714-9.987-111.219,15.081-113.894,13.036-1.391,16.565,27.852,16.835,35.8,2.364-17.966,16.841-59.566,40.087-40.772,28.095,22.714-12.347,97.958-33.274,118.863" transform="translate(1112.798 2390.125)"/><g transform="translate(1504.242 2692.063)"><path class="b" d="M392.355,322.678a10.066,10.066,0,0,0,11.7-.611,10.271,10.271,0,0,0,3.655-6.706,10.165,10.165,0,0,0-6.918-10.6c-4.332-1.276-10.071,1.371-12.033,5.495C386.874,314.21,388.863,320.3,392.355,322.678Z" transform="translate(-388.031 -304.437)"/></g><g transform="translate(1111.375 2766.575)"><path class="b" d="M164.088,445.084s-26.894-88.207-50.593-40.433c0,0-8.823-34.074-26.82-33.292-17.3.753-14.56,37.43-14.56,37.43S38.259,369.291,35.25,444.9Z" transform="translate(-35.25 -371.346)"/></g><g transform="translate(1111.375 2765.051)"><path class="b" d="M46.313,382.241a6.86,6.86,0,0,1-8.854-10.476C44.276,365.708,53.43,376.521,46.313,382.241Z" transform="translate(-35.25 -369.978)"/></g><g transform="translate(1317.628 2594.902)"><path class="b" d="M233.84,232.025a8.3,8.3,0,0,1-10.711-12.672C231.376,212.025,242.449,225.1,233.84,232.025Z" transform="translate(-220.459 -217.19)"/></g><g transform="translate(1541.237 2666.178)"><path class="c" d="M424.155,315.265l-.956-.355-1.949-33.13.621-.586,30.625,3.619.334.941ZM422.4,282.378l1.835,31.2,27.01-27.8Z" transform="translate(-421.251 -281.193)"/></g><g transform="translate(1268.337 2504.134)"><path class="aa" d="M220.629,171.946,176.2,145.776l.109-1.009,27.785-9.084.676.292,16.648,35.253Zm-42.8-26.5,41.811,24.627L203.97,136.895Z" transform="translate(-176.197 -135.683)"/></g><g transform="translate(1176.562 2741.096)"><path class="b" d="M113.445,379.678a14.153,14.153,0,0,1-16.63-5.019,17.4,17.4,0,0,1-2.942-11.637,16.835,16.835,0,0,1,7.778-12.727,13.234,13.234,0,0,1,13.994.353C125.423,357.3,124.485,375.078,113.445,379.678Z" transform="translate(-93.786 -348.467)"/><g class="ab"><g transform="translate(-6.275 0.264)"><g transform="translate(22.142 3.243)"><rect class="y" width="22.711" height="1.166" transform="matrix(0.598, -0.802, 0.802, 0.598, 0, 18.208)"/></g><g transform="translate(0 0)"><rect class="y" width="1.166" height="27.228" transform="translate(0 0.922) rotate(-52.251)"/></g></g></g></g><rect class="y" width="1.166" height="99.938" transform="matrix(0.99, -0.138, 0.138, 0.99, 1189.125, 2741.417)"/><path class="c" d="M101.407,396.036A11.339,11.339,0,0,1,89.992,404a13.928,13.928,0,0,1-8.778-3.931,13.486,13.486,0,0,1-4.138-11.212,10.606,10.606,0,0,1,7.173-8.622C93.292,377.392,104,386.81,101.407,396.036Z" transform="translate(1080.865 2396.18)"/><g transform="translate(1154.728 2777.494)"><g transform="translate(0 12.327)"><rect class="y" width="18.349" height="1.166" transform="matrix(0.995, -0.101, 0.101, 0.995, 0, 1.848)"/></g><g transform="translate(21.753 0)"><rect class="y" width="17.147" height="1.166" transform="translate(0 16.275) rotate(-71.645)"/></g></g><path class="a" d="M101.407,396.037A11.339,11.339,0,0,1,89.991,404a13.927,13.927,0,0,1-8.778-3.931,13.486,13.486,0,0,1-4.137-11.212,10.6,10.6,0,0,1,7.174-8.622C93.294,377.392,104,386.811,101.407,396.037Z" transform="translate(1080.865 2396.18)"/><rect class="y" width="1.166" height="51.294" transform="translate(1160.036 2780.214) rotate(-50.284)"/><g transform="translate(1202.788 2788.81)"><path class="ac" d="M123.665,411.845a9.646,9.646,0,0,1-6.281-10.034,11.848,11.848,0,0,1,3.71-7.29,11.47,11.47,0,0,1,9.7-3.042,9.021,9.021,0,0,1,7.021,6.458C139.846,405.739,131.392,414.438,123.665,411.845Z" transform="translate(-117.336 -391.313)"/></g><g transform="translate(1199.31 2791.028)"><rect class="y" width="30.378" height="1.166" transform="translate(0 21.659) rotate(-45.48)"/></g><g transform="translate(1202.788 2788.81)"><g class="ad"><g transform="translate(4.113 -0.402)"><g transform="translate(6.006 10.628)"><rect class="y" width="1.166" height="12.721" transform="translate(0 1.156) rotate(-82.596)"/></g><g transform="translate(0 0)"><rect class="y" width="1.166" height="15.764" transform="matrix(0.998, -0.064, 0.064, 0.998, 0, 0.075)"/></g></g></g></g><g transform="translate(1114.777 2639.53)"><path class="ae" d="M49.567,284.772l-.961-.051-10.3-19.978.365-.8,27.841-6.682.6.847Zm-9.946-19.909,9.538,18.5L65.4,258.675Z" transform="translate(-38.305 -257.264)"/></g><g transform="translate(1360.447 2560.937)"><path class="af" d="M287.32,207.043h-.059a28.2,28.2,0,0,1-15.635-5.306,38.532,38.532,0,0,1-12.718-14.547l1-.5a37.411,37.411,0,0,0,12.349,14.126,27.1,27.1,0,0,0,15.012,5.113h.052c5.567,0,10.9-2.443,13.918-6.384l.884.678A18.567,18.567,0,0,1,287.32,207.043Z" transform="translate(-258.908 -186.69)"/></g><g transform="translate(1111.375 2839.625)"><rect class="ag" width="478.304" height="1.114"/></g></g></svg>