<svg xmlns="http://www.w3.org/2000/svg" width="59" height="59" viewBox="0 0 59 59"><defs><style>.a{fill:#ff6673;}.b{fill:#46c8e0;}</style></defs><g transform="translate(0)"><path class="a" d="M32.754,31.33a2.537,2.537,0,1,0,2.537-2.537A2.54,2.54,0,0,0,32.754,31.33Zm3.345,0a.808.808,0,1,1-.808-.808A.809.809,0,0,1,36.1,31.33Zm0,0" transform="translate(-28.98 -25.475)"/><path class="a" d="M88.8,31.33a2.537,2.537,0,1,0,2.537-2.537A2.539,2.539,0,0,0,88.8,31.33Zm3.345,0a.808.808,0,1,1-.808-.808A.809.809,0,0,1,92.149,31.33Zm0,0" transform="translate(-78.571 -25.475)"/><path class="a" d="M144.852,31.33a2.537,2.537,0,1,0,2.537-2.537A2.539,2.539,0,0,0,144.852,31.33Zm3.345,0a.808.808,0,1,1-.808-.808A.809.809,0,0,1,148.2,31.33Zm0,0" transform="translate(-128.16 -25.475)"/><path class="b" d="M55.2,0H27.5a.864.864,0,0,0,0,1.729H55.2A2.078,2.078,0,0,1,57.272,3.8V10.03H1.729V3.8A2.077,2.077,0,0,1,3.8,1.729H22.047a.864.864,0,0,0,0-1.729H3.8A3.808,3.808,0,0,0,0,3.8V55.2A3.808,3.808,0,0,0,3.8,59H55.2A3.808,3.808,0,0,0,59,55.2V3.8A3.808,3.808,0,0,0,55.2,0Zm2.075,55.2A2.077,2.077,0,0,1,55.2,57.271H3.8A2.077,2.077,0,0,1,1.729,55.2V11.758H57.271Zm0,0"/><path class="a" d="M33.619,147.312a.865.865,0,0,0,.864-.865v-1.266a2.224,2.224,0,0,1,.365-1.225.864.864,0,1,0-1.445-.949,3.951,3.951,0,0,0-.649,2.175v1.266a.865.865,0,0,0,.865.865Zm0,0" transform="translate(-28.98 -126.182)"/><path class="a" d="M56.077,451.375a3.979,3.979,0,0,0,.634.05h2.567a.864.864,0,0,0,0-1.729H56.711a2.268,2.268,0,0,1-.359-.029.864.864,0,1,0-.275,1.707Zm0,0" transform="translate(-48.971 -397.84)"/><path class="a" d="M60.5,132.19h3.06a.864.864,0,0,0,0-1.729H60.494a.864.864,0,0,0,.007,1.729Zm0,0" transform="translate(-52.761 -115.427)"/><path class="a" d="M109.411,451.733h3.066a.864.864,0,1,0,0-1.729h-3.066a.864.864,0,1,0,0,1.729Zm0,0" transform="translate(-96.039 -398.148)"/><path class="a" d="M113.685,132.19h3.066a.864.864,0,0,0,0-1.729h-3.066a.864.864,0,1,0,0,1.729Zm0,0" transform="translate(-99.819 -115.427)"/><path class="a" d="M33.619,199.763a.864.864,0,0,0,.864-.864v-3.066a.864.864,0,0,0-1.729,0V198.9A.865.865,0,0,0,33.619,199.763Zm0,0" transform="translate(-28.98 -172.501)"/><path class="a" d="M33.89,412.588a.865.865,0,0,0,.788-1.219,2.211,2.211,0,0,1-.195-.915V408.7a.864.864,0,0,0-1.729,0v1.759a3.933,3.933,0,0,0,.347,1.623A.864.864,0,0,0,33.89,412.588Zm0,0" transform="translate(-28.98 -360.835)"/><path class="a" d="M162.627,451.733h3.066a.864.864,0,1,0,0-1.729h-3.066a.864.864,0,1,0,0,1.729Zm0,0" transform="translate(-143.122 -398.148)"/><path class="a" d="M33.619,252.978a.864.864,0,0,0,.864-.864v-3.066a.864.864,0,0,0-1.729,0v3.066A.864.864,0,0,0,33.619,252.978Zm0,0" transform="translate(-28.98 -219.584)"/><path class="a" d="M33.619,359.409a.864.864,0,0,0,.864-.864v-3.066a.864.864,0,1,0-1.729,0v3.066A.865.865,0,0,0,33.619,359.409Zm0,0" transform="translate(-28.98 -313.75)"/><path class="a" d="M33.619,306.194a.865.865,0,0,0,.864-.865v-3.066a.864.864,0,1,0-1.729,0v3.066A.865.865,0,0,0,33.619,306.194Zm0,0" transform="translate(-28.98 -266.667)"/><path class="a" d="M269.357,252.4a.865.865,0,0,0-.865.864v3.066a.864.864,0,1,0,1.729,0v-3.066A.864.864,0,0,0,269.357,252.4Zm0,0" transform="translate(-237.553 -223.313)"/><path class="a" d="M269.357,199.184a.865.865,0,0,0-.865.864v3.066a.864.864,0,0,0,1.729,0v-3.066A.864.864,0,0,0,269.357,199.184Zm0,0" transform="translate(-237.553 -176.231)"/><path class="a" d="M269.357,305.617a.864.864,0,0,0-.865.864v3.066a.864.864,0,0,0,1.729,0v-3.066A.864.864,0,0,0,269.357,305.617Zm0,0" transform="translate(-237.553 -270.399)"/><path class="a" d="M266.394,148.444V150.2a.865.865,0,0,0,1.729,0v-1.752a3.931,3.931,0,0,0-.35-1.63.864.864,0,1,0-1.576.711A2.224,2.224,0,0,1,266.394,148.444Zm0,0" transform="translate(-235.455 -129.446)"/><path class="a" d="M269.357,358.832a.865.865,0,0,0-.865.864v3.066a.864.864,0,0,0,1.729,0V359.7A.864.864,0,0,0,269.357,358.832Zm0,0" transform="translate(-237.553 -317.482)"/><path class="a" d="M220.118,132.19h2.574a2.267,2.267,0,0,1,.354.028.885.885,0,0,0,.137.011.864.864,0,0,0,.135-1.718,3.983,3.983,0,0,0-.626-.05h-2.574a.864.864,0,0,0,0,1.729Zm0,0" transform="translate(-193.988 -115.427)"/><path class="a" d="M166.9,132.19h3.066a.864.864,0,0,0,0-1.729H166.9a.864.864,0,0,0,0,1.729Zm0,0" transform="translate(-146.906 -115.427)"/><path class="a" d="M215.841,451.733h3.079a.864.864,0,1,0,0-1.729h-3.079a.864.864,0,1,0,0,1.729Zm0,0" transform="translate(-190.203 -398.148)"/><path class="a" d="M264.516,416.6a.863.863,0,0,0,1.2-.25,3.951,3.951,0,0,0,.644-2.167v-1.273a.864.864,0,1,0-1.729,0v1.273a2.224,2.224,0,0,1-.363,1.221A.864.864,0,0,0,264.516,416.6Zm0,0" transform="translate(-233.688 -364.564)"/><path class="b" d="M311.04,146.222a.866.866,0,0,0,.174.149,3.952,3.952,0,0,0,2.762,1.124h2.374a.864.864,0,0,0,0-1.729h-2.374a2.22,2.22,0,0,1-.9-.191l6.134-5.429,6.143,5.437a2.228,2.228,0,0,1-.884.183h-2.95a.864.864,0,0,0,0,1.729h2.95a3.952,3.952,0,0,0,2.851-1.214.814.814,0,0,0,.059-.059l.01-.013a3.95,3.95,0,0,0,1.045-2.679v-9.1a3.97,3.97,0,0,0-3.965-3.965H313.976A3.953,3.953,0,0,0,311.1,131.7a.848.848,0,0,0-.063.064c-.009.009-.015.019-.023.029a3.949,3.949,0,0,0-1.006,2.635v9.1a3.947,3.947,0,0,0,.919,2.536A.872.872,0,0,0,311.04,146.222Zm15.664-11.8v9.1a2.212,2.212,0,0,1-.153.806l-6.038-5.344,6.046-5.351A2.22,2.22,0,0,1,326.7,134.426Zm-12.729-2.236h10.492a2.221,2.221,0,0,1,.9.193l-6.163,5.455-6.154-5.447a2.223,2.223,0,0,1,.921-.2Zm-2.236,2.236a2.218,2.218,0,0,1,.139-.768l6.026,5.334-6.019,5.327a2.229,2.229,0,0,1-.146-.789Zm0,0" transform="translate(-274.287 -115.427)"/><path class="b" d="M311.05,332.931a.76.76,0,0,0,.06.06,3.953,3.953,0,0,0,2.863,1.227h10.492a3.953,3.953,0,0,0,2.864-1.227.823.823,0,0,0,.059-.06l.01-.013a3.95,3.95,0,0,0,1.032-2.665v-9.1a3.948,3.948,0,0,0-1.032-2.665l-.01-.013a.873.873,0,0,0-.064-.065,3.953,3.953,0,0,0-2.859-1.222H313.973a3.954,3.954,0,0,0-2.859,1.222c-.022.02-.043.042-.064.065l-.01.013a3.95,3.95,0,0,0-1.032,2.665v9.1a3.95,3.95,0,0,0,1.032,2.665Zm13.415-.442H313.973a2.222,2.222,0,0,1-.9-.192l6.148-5.442,6.149,5.442a2.222,2.222,0,0,1-.9.192Zm2.236-11.34v9.1a2.219,2.219,0,0,1-.146.787l-6.032-5.339,6.032-5.339A2.217,2.217,0,0,1,326.7,321.149Zm-12.729-2.236h10.492a2.223,2.223,0,0,1,.9.192l-6.149,5.442-6.148-5.442A2.222,2.222,0,0,1,313.973,318.913Zm-2.236,2.236a2.221,2.221,0,0,1,.146-.787l6.032,5.339-6.032,5.339a2.219,2.219,0,0,1-.146-.787Zm0,0" transform="translate(-274.284 -280.633)"/></g></svg>